<?xml version="1.0" encoding="UTF-8"?>
<svg version="1.1" viewBox="0 0 1600 1600" width="1280" height="1280" xmlns="http://www.w3.org/2000/svg">
<path transform="translate(518 76.8)" d="m0 0c1.16 9.06e-4 1.16 9.06e-4 2.34 0.00183 12.3 0.0261 24.5 0.444 36.7 2.19 0.922 0.129 1.84 0.258 2.79 0.391 43.3 6.24 84.9 20.6 124 39.6 1.19 0.576 1.19 0.576 2.41 1.16 4.56 2.22 9.08 4.51 13.6 6.84 0.969 0.495 0.969 0.495 1.96 1 17.6 9 34.6 19.1 51 30 1.04 0.686 1.04 0.686 2.11 1.39 7.81 5.14 15.6 10.3 23.2 15.7 0.558 0.397 1.12 0.793 1.69 1.2 2.93 2.11 5.78 4.28 8.57 6.55 0.585 0.47 1.17 0.939 1.77 1.42 1.11 0.899 2.21 1.81 3.3 2.74 3.02 2.46 3.02 2.46 6.77 2.75 2.78-0.854 4.37-1.87 6.61-3.7 0.74-0.593 1.48-1.19 2.24-1.8 0.773-0.632 1.55-1.26 2.34-1.91 5.81-4.64 11.6-9 17.9-12.9 2.55-1.58 4.99-3.27 7.44-5 18-12.8 37.5-23.9 57-34.4 1.98-1.07 3.94-2.17 5.9-3.26 55.1-30.4 119-50.1 182-50 1.12 0.0014 1.12 0.0014 2.26 0.00284 60.5 0.164 116 21.1 160 63.2 0.493 0.471 0.985 0.942 1.49 1.43 6.72 6.45 12.8 13.2 18.5 20.6 0.422 0.546 0.845 1.09 1.28 1.65 51.7 67.3 67.5 154 67.1 237-0.0171 4.15-0.00692 8.29 0.0103 12.4 0.0965 27.4-1.59 54.5-5.4 81.7 6.21 2.87 12.4 5.74 18.6 8.57 10.8 4.92 21.6 9.87 32.2 15.3 1.58 0.81 3.15 1.62 4.73 2.42 42.3 21.5 82 47.7 117 79.7 2.01 1.82 4.06 3.59 6.13 5.35 3.67 3.2 7.16 6.58 10.6 10 0.541 0.528 1.08 1.06 1.64 1.6 1.33 1.32 2.6 2.7 3.86 4.09v2c0.99 0.33 1.98 0.66 3 1 1.44 1.39 1.44 1.39 3 3.25 0.614 0.726 1.23 1.45 1.86 2.2 0.706 0.842 1.41 1.68 2.14 2.55 0.83 0.955 1.66 1.91 2.52 2.89 6.97 8.04 13.3 16.4 19.5 25.1 0.405 0.563 0.811 1.13 1.23 1.71 25.1 35 44.5 81.8 45 125 0.0126 0.874 0.0251 1.75 0.0381 2.65 0.228 19.7-0.215 38-5.31 57.2l-0.795 3.17c-5.1 20.3-12.4 39.3-22.2 57.8-0.368 0.703-0.736 1.41-1.12 2.13-13.1 24.8-30 47.1-49.9 66.9l-2.31 2.31c-5.23 5.23-10.5 10.5-15.7 15.7-0.486 0.509-0.972 1.02-1.47 1.54-4.28 4.42-8.88 8.3-13.7 12.2-1.79 1.44-3.58 2.9-5.34 4.38-28 23.5-59.6 42.3-91.5 59.9-0.728 0.405-1.46 0.81-2.21 1.23-19.9 11-40.8 20.2-61.8 28.8 0.0804 0.641 0.161 1.28 0.244 1.94 0.385 3.1 0.758 6.2 1.13 9.31 0.126 1.01 0.253 2.01 0.383 3.05 2.9 24.3 3.62 48.6 3.61 73.1-1.62e-4 3.33 0.0136 6.66 0.041 10 0.65 80.5-14.8 169-66.4 234-0.714 0.905-1.43 1.81-2.16 2.74-5.64 7.04-11.7 13.7-17.8 20.3-0.616 0.659-1.23 1.32-1.87 2-4.97 5.15-10.5 9.56-16.1 14-0.978 0.795-1.96 1.59-2.96 2.41-20.8 16.6-45.4 29.4-71 36.6-0.749 0.217-1.5 0.434-2.27 0.658-52.8 15.1-107 10.6-160-3.66-0.922-0.25-1.84-0.5-2.79-0.758-39.1-10.8-76.8-28.4-112-48.8-2.26-1.32-4.53-2.63-6.81-3.93-17.6-10.1-34.9-21-51.1-33.3-1.68-1.28-3.36-2.54-5.05-3.8-8.34-6.23-8.34-6.23-10.6-8.25-1.92-1.37-1.92-1.37-4.22-1.25-4.18 1.6-7.37 4.27-10.9 7-8.07 6.1-16.3 11.8-24.8 17.4-0.557 0.372-1.11 0.743-1.69 1.13-8.04 5.36-16.2 10.5-24.4 15.5-1.26 0.776-2.52 1.55-3.78 2.33-10.1 6.12-20.4 11.7-30.7 17.3-2.09 1.13-4.16 2.28-6.22 3.44-41.7 23.1-89 38.8-136 45.7-0.716 0.105-1.43 0.211-2.17 0.319-27.8 4.05-55.2 3.68-83.1-0.132-0.772-0.102-1.54-0.203-2.34-0.308-40.2-5.52-80.3-24.9-110-52.7-1.33-1.15-2.66-2.3-4-3.44-8.54-7.47-16-15.7-23-24.6-0.757-0.928-1.51-1.86-2.29-2.81-11.3-14.2-21.1-29.8-28.8-46.3-1.08-2.26-2.22-4.48-3.36-6.71-2.61-5.21-4.83-10.5-6.93-16-0.386-0.996-0.773-1.99-1.17-3.02-6.9-18-12.1-36.4-16.5-55.2-0.192-0.831-0.384-1.66-0.582-2.52-4.36-19.3-6.68-39-8.61-58.7-0.108-1.09-0.108-1.09-0.217-2.2-1.55-17.1-1.83-34.2-1.85-51.4-0.00167-1.13-0.00334-2.25-0.00507-3.41-0.00219-24.8 1.43-49.4 4.63-74.1 0.536-4.29 0.709-8.46 0.629-12.8-0.908-0.39-0.908-0.39-1.83-0.788-43.7-18.8-86.4-40.4-125-68.2-1.2-0.86-1.2-0.86-2.43-1.74-9.61-6.89-18.9-14-27.8-21.8-1.29-1.09-2.62-2.15-3.95-3.2-8.65-6.81-16.3-14.5-24.1-22.3-2.33-2.34-4.67-4.67-7.02-7-7.68-7.68-15.1-15.3-21.7-24-0.904-1.13-1.81-2.26-2.71-3.39-14.9-19.2-27.7-40.2-37.3-62.6-0.494-1.15-0.494-1.15-0.999-2.32-6.38-15.1-10.6-30.7-14-46.7-0.279-1.27-0.558-2.54-0.845-3.84-2.46-11.9-2.75-23.8-2.72-35.9-5.14e-4 -1.03-0.00103-2.06-0.00156-3.12 0.0371-17.5 1.89-33.2 6.56-50.1 0.416-1.68 0.826-3.36 1.23-5.05 10.2-41.1 33.8-78.7 61.8-110 0.856-0.967 1.71-1.93 2.59-2.93 5.52-6.14 11.3-12 17.1-17.9 0.701-0.706 1.4-1.41 2.12-2.14 4.57-4.55 9.29-8.86 14.2-13 1.01-0.878 2.02-1.76 3.03-2.63 8.73-7.48 17.8-14.5 27-21.4 0.713-0.534 1.43-1.07 2.16-1.62 19.4-14.5 40-26.8 61-38.7 2.48-1.41 4.94-2.83 7.41-4.26 8.45-4.88 17.1-9.15 26-13.3 3.83-1.78 7.58-3.67 11.3-5.62 9.45-4.79 19.4-8.59 29.2-12.5-0.699-11.5-1.72-23-2.89-34.4-1.91-19.5-2.34-39.1-2.36-58.6-6.75e-4 -1.08-0.00135-2.16-0.00204-3.28 0.0196-20 0.944-39.8 3.25-59.7 0.127-1.1 0.127-1.1 0.257-2.22 7.44-63.5 26.5-126 66.7-177 0.786-0.993 1.57-1.99 2.38-3.01 4.27-5.32 8.68-10.3 13.6-15 0.825-0.825 1.65-1.65 2.5-2.5 0.825-0.825 1.65-1.65 2.5-2.5 0.679-0.731 0.679-0.731 1.37-1.48 13.1-13.8 30-24.6 46.6-33.5 0.585-0.323 1.17-0.646 1.77-0.979 33.6-18.4 72.2-25.3 110-25.2zm-89.9 153c-39 45.8-46.2 113-46.1 171 0.00535 3.81 3.44e-5 7.62-0.00635 11.4-0.248 22.1-0.248 22.1 2.14 44 5.83-1.25 11.6-2.65 17.3-4.25 1.61-0.443 3.23-0.886 4.84-1.33 0.844-0.231 1.69-0.463 2.56-0.701 46.2-12.6 93-22.5 140-30.1 1.97-0.318 3.94-0.64 5.91-0.963 2.97-0.48 5.95-0.911 8.94-1.33 1.62-0.239 3.25-0.478 4.87-0.717 0.754-0.0968 1.51-0.194 2.29-0.293 6.28-0.952 9.23-3.33 12.9-8.31 0.679-0.99 1.36-1.98 2.06-3 1.3-1.7 2.64-3.37 3.97-5.04 1.41-1.78 2.81-3.57 4.2-5.37 3.18-4.06 6.5-7.99 9.85-11.9 2.83-3.32 5.61-6.67 8.36-10.1 8.28-10.2 17-20 25.9-29.6 3.09-3.38 6.05-6.87 9.01-10.4 3.54-4.17 7.11-8.21 11.1-12 1.7-1.71 3.26-3.48 4.83-5.32 4.04-4.64 8.35-8.98 12.7-13.3 0.824-0.823 1.65-1.65 2.5-2.49 2.61-2.6 5.22-5.2 7.83-7.8 1.77-1.76 3.53-3.52 5.29-5.28 3.88-3.87 7.76-7.73 11.6-11.6 1.96-1.95 3.92-3.91 5.88-5.87-1.52-4.19-4.1-5.64-7.81-7.94-0.61-0.38-1.22-0.76-1.85-1.15-1.36-0.847-2.73-1.69-4.1-2.53-2.38-1.46-4.74-2.95-7.1-4.44-12.2-7.65-24.6-14.9-37.1-21.9-1.02-0.57-1.02-0.57-2.05-1.15-9.91-5.54-20.1-10.3-30.5-14.8-1.5-0.654-3-1.31-4.5-1.98-21.4-9.5-43.9-16-66.9-20.1-1.24-0.245-2.49-0.49-3.77-0.742-43.6-7.41-85.5 4.79-115 37.7zm614-35c-0.953 0.214-1.91 0.429-2.89 0.649-50.6 11.7-96.7 36.5-140 65-0.915 0.603-0.915 0.603-1.85 1.22-2.76 1.85-5.3 3.68-7.53 6.16 1.28 1.71 2.62 3.37 4 5h2v2c1.36 1.38 1.36 1.38 3.21 2.85 5.51 4.69 10.6 9.8 15.7 14.9 1.66 1.66 3.32 3.32 4.99 4.98 5.06 5.06 10 10.2 14.7 15.6 2.03 2.34 4.22 4.49 6.43 6.65 3.5 3.47 6.82 7 10 10.7 2.6 2.98 5.29 5.87 7.98 8.76 4.42 4.77 8.77 9.57 13 14.5 0.422 0.49 0.844 0.981 1.28 1.49 3.58 4.16 7.15 8.34 10.7 12.5 0.465 0.543 0.929 1.09 1.41 1.65 9.78 11.4 19.3 23.1 28.6 34.9 0.652 0.794 1.3 1.59 1.98 2.41 0.41 0.645 0.821 1.29 1.24 1.96 3.54 4.97 6.56 6.65 12.6 7.82 2.08 0.325 4.16 0.612 6.25 0.874 3.17 0.401 6.33 0.883 9.49 1.36 1.73 0.258 3.46 0.512 5.19 0.762 10.9 1.57 21.7 3.48 32.5 5.42 1.05 0.189 2.11 0.379 3.2 0.574 36.1 6.53 71.7 15 107 24.7 1.06 0.293 2.12 0.585 3.22 0.887 1.98 0.548 3.97 1.1 5.95 1.65 4.44 1.23 8.79 2.33 13.4 2.97 7.66-71.2 5.34-163-41-222-20.1-24.5-46.4-39.1-78-42.7-4.94-0.309-9.86-0.382-14.8-0.375-0.67 5.44e-4 -1.34 0.00109-2.03 0.00165-13 0.048-25.5 1.51-38.2 4.37zm-245 148c-1.25 1.3-1.25 1.3-2.52 2.62-2.95 3.06-5.92 5.95-9.14 8.72-4.64 4.02-8.97 8.31-13.3 12.7-0.764 0.76-1.53 1.52-2.31 2.3-4.2 4.21-8.21 8.51-12.1 13-1.93 2.21-3.99 4.27-6.09 6.31-3.7 3.66-7.15 7.4-10.4 11.4v1h117c-1.61-3.23-2.61-4.88-4.98-7.36-0.598-0.632-1.2-1.26-1.81-1.91-0.644-0.671-1.29-1.34-1.95-2.03-1.37-1.44-2.73-2.88-4.1-4.32-0.694-0.729-1.39-1.46-2.1-2.21-2.5-2.64-4.97-5.31-7.44-7.98-8.92-9.63-17.9-19.3-28-27.7-1.6-1.39-3.06-2.84-4.52-4.37-2.84-2.76-3.32-2.81-6.23-0.121zm-131 177c-1.95 0.164-3.89 0.324-5.84 0.479-2.77 0.222-5.54 0.461-8.3 0.704-0.817 0.0625-1.63 0.125-2.47 0.189-5.21 0.483-9.01 1.41-12.7 5.41-0.375 0.55-0.749 1.1-1.14 1.67-0.442 0.637-0.883 1.27-1.34 1.93-0.47 0.698-0.939 1.4-1.42 2.12-1.08 1.56-2.15 3.13-3.23 4.69-0.849 1.25-0.849 1.25-1.72 2.52-1.71 2.5-3.45 4.97-5.21 7.44-24.9 35.2-47.9 71.8-69.5 109-0.563 0.971-1.13 1.94-1.71 2.94-8.04 13.9-15.7 27.9-23.3 42.1-0.702 1.32-0.702 1.32-1.42 2.66-13.4 25.2-26.3 50.8-38.4 76.7-0.658 1.41-1.32 2.81-1.99 4.21-4.66 8.79-4.66 8.79-4.99 18.3 1.97 5.12 4.23 10.1 6.61 15 0.594 1.25 1.19 2.5 1.78 3.76 1.21 2.55 2.43 5.11 3.65 7.65 1.58 3.28 3.13 6.56 4.69 9.85 11.6 24.4 23.5 48.7 36.7 72.2 1.47 2.66 2.92 5.33 4.36 8.01 6.54 12.1 13.4 24.1 20.5 35.9 1.56 2.61 3.11 5.22 4.66 7.83 12.8 21.5 26.5 42.3 40.4 63.1 2.29 3.42 4.57 6.84 6.85 10.3 6.84 10.3 13.8 20.4 21.2 30.3 0.504 0.676 1.01 1.35 1.53 2.05 0.713 0.945 0.713 0.945 1.44 1.91 0.626 0.829 0.626 0.829 1.26 1.68 0.418 0.513 0.837 1.03 1.27 1.56 0.398 0.539 0.796 1.08 1.21 1.63 2.8 2.13 5.55 2.1 9.02 2.46 0.712 0.0778 1.42 0.156 2.16 0.236 2.21 0.236 4.41 0.453 6.62 0.666 1.88 0.191 1.88 0.191 3.8 0.386 3.88 0.378 7.76 0.722 11.6 1.05 1.08 0.0923 1.08 0.0923 2.18 0.186 14.1 1.2 28.3 2.13 42.4 3 1 0.0623 2 0.125 3.03 0.189 25.5 1.58 51 2.39 76.5 2.37 0.998-1.79e-4 0.998-1.79e-4 2.02-3.62e-4 40.9-0.00923 81.6-2.04 122-5.19 0.849-0.0653 1.7-0.131 2.57-0.198 4.88-0.377 9.75-0.767 14.6-1.18 1.47-0.123 2.94-0.245 4.41-0.363 2-0.164 4.01-0.339 6.01-0.515 1.12-0.0961 2.24-0.192 3.39-0.291 7.47-1.14 10.5-4.72 15-10.5 2.21-3.01 4.3-6.08 6.38-9.19 1.14-1.69 2.28-3.37 3.42-5.06 0.548-0.815 1.1-1.63 1.66-2.47 2.05-3.03 4.14-6.03 6.23-9.04 4.44-6.4 8.75-12.9 13.1-19.4 1.22-1.84 2.46-3.67 3.69-5.51 12.8-19.1 24.8-38.7 36.6-58.4 0.576-0.966 0.576-0.966 1.16-1.95 24.6-41.4 47.5-84.1 67.8-128 0.519-1.12 1.04-2.23 1.57-3.39 1-2.17 2-4.35 2.98-6.53 1.07-2.35 2.15-4.69 3.25-7.03 0.566-1.23 1.13-2.46 1.69-3.7 0.514-1.1 1.03-2.2 1.56-3.33 1.62-5.31 0.486-9.83-1.78-14.8-0.542-1.2-0.542-1.2-1.1-2.42-0.39-0.834-0.78-1.67-1.18-2.53-0.406-0.883-0.811-1.77-1.23-2.68-2.74-5.93-5.6-11.8-8.56-17.6-2.88-5.67-5.61-11.4-8.34-17.1-9.26-19.4-18.9-38.6-29.3-57.4-1.48-2.69-2.94-5.39-4.4-8.09-16.9-31.4-35.4-61.9-55.1-91.6-0.857-1.29-1.71-2.59-2.57-3.88-10.5-15.8-21-31.6-32-47-1.49-2.1-2.95-4.21-4.41-6.33-0.898-1.29-1.8-2.59-2.7-3.88-0.585-0.863-0.585-0.863-1.18-1.74-2.16-3.07-3.68-4.82-7.19-6.13-2.84-0.41-5.62-0.725-8.48-0.965-0.857-0.0779-1.71-0.156-2.6-0.236-2.85-0.255-5.7-0.497-8.55-0.737-0.983-0.0852-1.97-0.17-2.98-0.258-16.2-1.4-32.4-2.52-48.6-3.49-1.01-0.0606-2.02-0.121-3.06-0.184-6.9-0.409-13.8-0.781-20.7-1.13-0.953-0.0495-1.91-0.0989-2.89-0.15-19.2-0.974-38.5-1.05-57.7-1.04-1.22 4e-4 -1.22 4e-4 -2.46 8.09e-4 -44.5 0.0183-88.7 2.16-133 5.94zm451 29.2c0.54 4.54 2.49 7.68 5 11.4 0.831 1.26 1.66 2.52 2.49 3.78 0.633 0.963 0.633 0.963 1.28 1.95 3.58 5.52 6.89 11.2 10.2 16.9 0.528 0.896 1.06 1.79 1.6 2.71 7.65 13 15.2 26.1 22.4 39.3 1.49 2.71 2.97 5.41 4.46 8.12 0.959 1.75 1.92 3.5 2.87 5.24 2.15 3.92 4.32 7.82 6.67 11.6 0.99-0.33 1.98-0.66 3-1 1.04-2.73 1.87-5.35 2.64-8.16 0.241-0.845 0.482-1.69 0.73-2.56 0.787-2.78 1.55-5.56 2.32-8.34 0.534-1.91 1.07-3.82 1.6-5.73 3.29-11.8 6.46-23.6 9.46-35.5 0.17-0.67 0.341-1.34 0.516-2.03 0.476-1.88 0.941-3.76 1.41-5.65 0.259-1.05 0.518-2.09 0.784-3.17 0.516-2.7 0.651-5.1 0.544-7.84-7.93-3.21-16.1-5.41-24.4-7.69-1.17-0.325-1.17-0.325-2.36-0.656-12.1-3.35-24.2-6.43-36.4-9.28-0.742-0.174-1.48-0.348-2.25-0.527-7.25-1.98-7.25-1.98-14.6-2.85zm-643 1.58c-0.734 0.17-1.47 0.34-2.22 0.515-2.43 0.566-4.86 1.14-7.29 1.72-0.83 0.196-1.66 0.393-2.52 0.595-12.7 3.02-25.3 6.25-37.9 9.74-1.73 0.481-3.46 0.959-5.2 1.43-2.42 0.665-4.84 1.35-7.26 2.03-1.08 0.295-1.08 0.295-2.19 0.596-4.35 1.26-4.35 1.26-7.2 4.79 0.372 3.14 0.372 3.14 1.35 6.73 0.17 0.684 0.34 1.37 0.516 2.07 0.572 2.28 1.16 4.55 1.76 6.82 0.405 1.59 0.81 3.18 1.21 4.76 4.89 19 10.5 37.8 16.2 56.6h4c0.265-0.516 0.53-1.03 0.803-1.56 7.39-14.3 15.1-28.5 23.2-42.4 0.566-0.984 1.13-1.97 1.72-2.98 7.03-12.2 14.2-24.3 21.6-36.3 3.38-5.51 6.62-11.1 9.71-16.7-3.57 0-6.78 0.775-10.2 1.58zm831 61.4c-0.295 1.17-0.591 2.34-0.895 3.54-14.2 56.1-31.4 111-52.2 165-0.25 0.65-0.499 1.3-0.756 1.97-1.08 2.8-2.2 5.58-3.41 8.34-0.377 0.868-0.754 1.74-1.14 2.63-0.491 1.07-0.491 1.07-0.991 2.16-1.42 5.59 1.4 11.2 3.4 16.4 0.299 0.786 0.598 1.57 0.905 2.38 0.643 1.69 1.29 3.39 1.94 5.08 1.73 4.53 3.44 9.07 5.15 13.6 0.346 0.918 0.692 1.84 1.05 2.78 18.6 49.5 33.6 99.9 47 151 4.91-0.868 8.9-2.61 13.4-4.75 0.825-0.393 1.65-0.787 2.5-1.19 10.7-5.18 20.9-11.1 31.1-17.1 0.884-0.515 1.77-1.03 2.68-1.56 19.8-11.6 38.4-24.2 56.3-38.4 0.633-0.499 1.27-0.998 1.92-1.51 35-27.9 67.3-66.3 72.8-112 3.04-36.4-12.7-69.5-35.7-96.8-0.5-0.582-0.999-1.16-1.51-1.76-1.07-1.25-2.13-2.52-3.18-3.8-0.532-0.642-1.06-1.28-1.61-1.95-0.478-0.584-0.956-1.17-1.45-1.77-1.23-1.51-1.23-1.51-3.29-1.27-0.33-0.99-0.66-1.98-1-3h-2c-0.66-1.32-1.32-2.64-2-4h-2c-0.33-0.99-0.66-1.98-1-3h-2c-0.33-0.99-0.66-1.98-1-3-1.42-1.51-1.42-1.51-3.25-3-0.73-0.616-1.46-1.23-2.21-1.87l-2.54-2.13c-0.92-0.807-1.84-1.61-2.79-2.45-28.1-24.5-61.4-44.5-94.8-60.9-4.35-2.14-8.58-4.41-12.7-6.89-1.84-1.03-1.84-1.03-4.7-0.812zm-1012 0c-2.44 1.07-4.77 2.2-7.12 3.44-1.47 0.754-2.93 1.51-4.4 2.26-1.12 0.581-1.12 0.581-2.27 1.17-2.02 1.03-4.04 2.03-6.08 3.02-33.1 16.1-64.2 36.6-92.1 60.6-2.05 1.75-4.11 3.47-6.19 5.18-3 2.55-5.3 5.31-7.78 8.36-2.52 2.57-5.08 5.08-7.69 7.55-19.7 18.9-35.4 43.9-42.3 70.4-0.213 0.82-0.425 1.64-0.645 2.48-7.41 30.9 1.86 61.8 17.6 88.5 9.24 14.7 21.1 27.5 33.3 39.6 0.818 0.817 0.818 0.817 1.65 1.65 7.91 7.89 16 15.2 25 21.7 1.63 1.33 3.26 2.66 4.88 4 24.3 19.5 52.5 35.7 80.6 48.9 4.88 2.29 9.71 4.67 14.5 7.12 3.08-9.93 6-19.9 8.62-29.9 12.7-48.7 28.7-96.6 47.2-143 0.495-1.25 0.987-2.51 1.47-3.77 0.525-1.33 1.07-2.65 1.63-3.96 3.03-7.33 0.928-11.7-1.92-19-0.628-1.61-1.26-3.23-1.89-4.84-0.33-0.845-0.661-1.69-1-2.56-19.1-48.8-35.4-98.6-48.4-149-0.251-0.982-0.251-0.982-0.508-1.98-0.747-2.93-1.48-5.87-2.19-8.81-0.242-0.976-0.484-1.95-0.733-2.96-0.2-0.833-0.4-1.67-0.606-2.52-0.494-2.07-0.494-2.07-2.66-2.86zm882 337c-4.4 6.28-8.05 12.7-11.5 19.6-5.81 11.3-12.1 22.3-18.6 33.2-1.65 2.79-3.3 5.58-4.95 8.38-11.9 20.3-11.9 20.3-16.2 27-0.479 0.748-0.957 1.5-1.45 2.27-0.866 1.34-1.74 2.67-2.63 4-1.26 1.88-1.26 1.88-2.65 4.58 0.33 0.99 0.66 1.98 1 3 19.8-4.68 39.6-9.58 59.2-15 0.883-0.243 1.77-0.486 2.67-0.736 2.5-0.689 5-1.38 7.49-2.08 0.747-0.207 1.49-0.414 2.26-0.627 3.78-1.04 3.78-1.04 7.38-2.56-0.537-9.56-3.02-18.5-5.5-27.7-0.448-1.68-0.896-3.36-1.34-5.03-2.96-11-6.01-22-9.16-33-0.189-0.666-0.378-1.33-0.573-2.02-0.531-1.87-1.07-3.73-1.61-5.59-0.303-1.05-0.606-2.09-0.918-3.17-0.746-2.6-0.746-2.6-2.89-4.47zm-751 1c-1.99 5.17-3.77 10.3-5.27 15.7-0.202 0.707-0.403 1.41-0.611 2.14-0.647 2.27-1.29 4.55-1.93 6.82-0.446 1.57-0.893 3.15-1.34 4.72-2.48 8.75-4.94 17.5-7.35 26.3-0.231 0.837-0.461 1.67-0.698 2.54-3.07 10.8-3.07 10.8-3.8 21.8 7.1 2.41 14.3 4.48 21.5 6.56 0.752 0.217 1.5 0.435 2.28 0.658 18.3 5.24 36.7 9.57 55.2 13.8 1.32-2.82 1.32-2.82 0.218-4.74-0.638-0.96-0.638-0.96-1.29-1.94-0.477-0.733-0.955-1.47-1.45-2.22-0.531-0.797-1.06-1.59-1.61-2.41-1.13-1.74-2.25-3.47-3.37-5.21-0.584-0.905-1.17-1.81-1.77-2.74-14.5-22.8-27.7-46.8-40.4-70.7-0.543-1.02-1.09-2.04-1.64-3.09-0.474-0.895-0.948-1.79-1.44-2.71-1.31-2.45-1.31-2.45-3.26-5.28h-2zm-40 194c-2.89 15.7-2.19 32.1-2.19 48-0.00218 3.63-0.0204 7.27-0.0393 10.9-0.048 19.7 1.01 39.2 4.04 58.7 0.172 1.12 0.345 2.24 0.523 3.39 6.28 39.6 18.2 78.9 45.7 109 0.642 0.724 1.28 1.45 1.95 2.2 20.1 21.5 49.4 31.8 78.2 33.1 39.5 1.03 78.4-11.9 114-28.3 0.947-0.435 1.89-0.87 2.87-1.32 13.3-6.1 13.3-6.1 26-13.3 2.29-1.43 4.63-2.7 7.02-3.96 14.2-7.68 27.8-16.3 41.1-25.4 2-1.34 4-2.67 6-4-1.4-4.63-3.94-7.12-7.5-10.2-5.8-5.18-11.4-10.6-16.9-16.1-0.748-0.744-1.5-1.49-2.27-2.25-4.09-4.1-7.98-8.29-11.8-12.7-2.26-2.56-4.65-4.93-7.1-7.32-5.02-4.95-9.7-10.1-14.2-15.5-0.804-0.967-0.804-0.967-1.62-1.95-0.706-0.866-0.706-0.866-1.43-1.75-1.2-1.48-1.2-1.48-3.26-1.25-0.215-0.535-0.431-1.07-0.652-1.62-1.84-3.25-4.35-5.76-6.91-8.44-4.63-4.92-8.99-9.98-13.2-15.3-2.34-2.84-4.79-5.54-7.28-8.25-3.84-4.18-7.45-8.47-11-12.9-2.75-3.49-5.58-6.93-8.41-10.4-1.97-2.4-3.91-4.83-5.85-7.26-0.859-1.07-0.859-1.07-1.74-2.17-1.13-1.41-2.25-2.82-3.37-4.24-0.787-0.979-0.787-0.979-1.59-1.98-0.461-0.579-0.922-1.16-1.4-1.76-5.08-5.49-9.2-6.59-16.4-7.57-0.975-0.147-1.95-0.295-2.95-0.446-2.11-0.318-4.22-0.629-6.33-0.935-5.67-0.824-11.3-1.71-17-2.59-1.16-0.18-2.32-0.36-3.52-0.545-30.7-4.8-61.2-11.1-91.4-18.7-1.1-0.275-1.1-0.275-2.21-0.555-16.2-4.07-32.4-8.22-48.5-12.8-0.801-0.224-1.6-0.448-2.43-0.679-0.683-0.194-1.37-0.388-2.07-0.588-1.98-0.518-1.98-0.518-4.8-0.408zm821 1.84c-1.41 0.404-2.82 0.808-4.23 1.21-1.12 0.324-1.12 0.324-2.27 0.654-51.4 14.8-104 25.5-157 33.6-1.17 0.18-2.34 0.359-3.55 0.544-2.05 0.309-4.11 0.607-6.16 0.893-6.67 0.986-10.6 2.39-14.9 7.8-1.06 1.43-2.11 2.86-3.15 4.29-4.25 5.7-8.58 11.3-13.2 16.6-3.31 3.8-6.57 7.61-9.69 11.6-7.3 9.23-15.1 18.1-23 26.8-1.82 2.01-3.6 4.05-5.38 6.09-4.77 5.47-9.7 10.8-14.6 16.1-0.851 0.921-0.851 0.921-1.72 1.86-12.5 13.6-12.5 13.6-19.1 19.9-1.88 1.93-3.63 3.9-5.39 5.94-3.89 4.47-8.01 8.67-12.2 12.8-0.712 0.716-1.42 1.43-2.16 2.17-4.08 4.07-8.24 7.95-12.7 11.6-1.85 1.73-3.28 3.56-4.74 5.63 17.4 13.4 36.7 24.5 56 35 1.43 0.778 1.43 0.778 2.88 1.57 51 27.7 114 51.8 172 35 13.3-4.13 25.3-10.6 35.9-19.6 0.88-0.742 1.76-1.49 2.67-2.25 37.6-32.7 50.1-85 56-132 0.119-0.936 0.239-1.87 0.362-2.84 2.01-17 2.12-34.2 2.08-51.4-0.00183-1.44-0.00183-1.44-0.00369-2.91 0.176-24.2 0.176-24.2-2.12-48.2-4.07 0-6.89 0.701-10.8 1.84zm-355 52.3c-1.37 0.0496-2.75 0.0985-4.12 0.147-0.753 0.0278-1.51 0.0556-2.28 0.0843-22.3 0.8-44.6 0.736-66.9 0.71-1.31-0.00138-1.31-0.00138-2.65-0.0028-11-0.0118-21.9-0.0316-32.9-0.0597 3.33 4.58 6.66 8.91 10.7 12.9 0.851 0.84 1.7 1.68 2.58 2.55 1.31 1.28 1.31 1.28 2.64 2.58 5.37 5.26 10.6 10.5 15.5 16.2 6.23 7.17 13.3 13.7 20.5 19.8 1.33 1.15 2.67 2.29 4 3.44l3 2.56c2.04-1.36 2.04-1.36 4-3v-2c0.593-0.264 1.19-0.529 1.8-0.801 2.28-1.24 3.68-2.5 5.45-4.39 2.43-2.51 4.91-4.86 7.56-7.12 7-6.05 13.4-12.7 19.4-19.7 2.01-2.26 4.13-4.37 6.28-6.5 7.51-6.9 7.51-6.9 12.5-15.5 0.66-0.33 1.32-0.66 2-1-3.36-1.12-5.61-1.03-9.15-0.879z" fill="#000100"/>
<path transform="translate(906,665)" d="m0 0c0.553 0.446 1.11 0.891 1.67 1.35 16.2 13.2 29.7 28.5 40.3 46.6 0.378 0.642 0.755 1.28 1.14 1.95 20.4 35.2 28.6 81.1 18.9 121-0.199 0.827-0.397 1.65-0.602 2.51-6.3 25.4-17.3 47.9-33.4 68.5-0.418 0.541-0.837 1.08-1.27 1.64-4.21 5.4-8.31 10.2-13.7 14.4-0.763 0.763-1.53 1.53-2.31 2.31-13.2 13.2-28.7 23-45.7 30.7-0.647 0.302-1.29 0.605-1.96 0.917-8.82 4.09-17.7 7.01-27.2 9.4-1.43 0.364-1.43 0.364-2.89 0.735-13 3.12-25.9 4.32-39.2 4.27-0.671-0.00216-1.34-0.00431-2.03-0.00653-48.3-0.247-89.7-20.7-123-54.5-30-30.7-46-73.5-46.7-116 0.759-42.1 15.1-82.1 43.2-114 1.23-1.44 2.46-2.87 3.69-4.31 1.1-1.23 2.2-2.46 3.31-3.69 0.53-0.596 1.06-1.19 1.61-1.8 58-61.7 162-64.4 226-12.2zm-141 89c-0.73 0.547-1.46 1.09-2.21 1.66-11.1 9.01-18.5 23.2-20 37.4-0.969 17.9 3.47 32.6 15 46.5 10 10.6 24.4 16.7 38.8 17.6 16.9 0.217 30.9-4.2 43.3-15.9 11.8-11.7 17.1-25.2 17.5-41.7-0.271-15.8-6.2-30.2-17.3-41.6-14.2-12.3-29.2-16-47.6-15.2-10.4 0.814-19.1 4.97-27.4 11.2z" fill="#000100"/>
</svg>
